<?xml version="1.0" standalone="no"?>
<!DOCTYPE svg PUBLIC "-//W3C//DTD SVG 20010904//EN"
 "http://www.w3.org/TR/2001/REC-SVG-20010904/DTD/svg10.dtd">
<svg version="1.0" xmlns="http://www.w3.org/2000/svg"
 width="700.000000pt" height="700.000000pt" viewBox="0 0 700.000000 700.000000"
 preserveAspectRatio="xMidYMid meet">
<metadata>
Created by potrace 1.11, written by Peter Selinger 2001-2013
</metadata>
<g transform="translate(0.000000,700.000000) scale(0.100000,-0.100000)"
fill="#000000" stroke="none">
<path d="M4117 6444 c-1 -2 -29 -5 -62 -8 -377 -32 -782 -208 -1150 -497 -107
-84 -304 -282 -397 -400 -365 -460 -515 -944 -424 -1374 22 -105 65 -234 92
-277 13 -21 22 -39 19 -39 -3 -1 -8 -2 -12 -3 -131 -29 -391 -192 -638 -400
-62 -52 -283 -270 -346 -341 -225 -254 -465 -670 -569 -985 -39 -119 -50 -160
-74 -280 -77 -383 -38 -685 122 -955 118 -200 303 -341 547 -418 70 -22 109
-32 212 -51 108 -21 453 -28 603 -13 356 37 719 149 1085 334 185 94 408 238
558 361 44 35 75 56 70 46 -6 -11 -15 -46 -23 -79 -7 -33 -16 -75 -21 -94 -9
-36 -6 -209 4 -248 17 -66 90 -146 165 -181 48 -22 73 -27 154 -29 140 -3 224
26 364 123 l63 44 16 -30 c25 -49 91 -107 142 -124 129 -44 350 8 505 120 28
19 51 34 53 32 1 -2 14 -22 29 -46 57 -91 144 -128 284 -120 175 11 376 107
497 239 86 93 276 371 263 384 -3 4 -152 8 -208 6 -21 -1 -33 -14 -62 -64 -38
-66 -105 -138 -152 -163 -33 -17 -102 -22 -116 -8 -15 15 3 62 187 494 l172
405 87 5 86 5 20 49 c10 27 27 67 37 90 41 90 43 86 -49 86 -62 0 -81 3 -77
13 3 6 42 98 87 202 45 105 86 201 91 213 11 27 20 28 -246 -8 -188 -25 -247
-33 -265 -35 -9 0 -20 -4 -26 -7 -6 -4 -46 -91 -89 -193 l-79 -185 -47 0 -47
0 -42 -102 c-23 -56 -44 -107 -47 -115 -4 -10 6 -13 40 -13 l45 0 -80 -187
c-94 -222 -104 -245 -129 -299 -10 -23 -19 -44 -19 -47 0 -30 -113 -248 -159
-309 -86 -111 -199 -119 -169 -12 10 37 61 165 98 249 42 93 350 821 350 828
0 4 -117 7 -260 7 -254 0 -260 0 -260 -20 0 -20 0 -20 -37 -1 -73 36 -174 43
-302 21 l-66 -12 -180 87 c-99 48 -190 91 -202 95 -18 8 -30 -1 -85 -68 -129
-158 -298 -312 -448 -411 -330 -219 -814 -353 -1098 -304 -180 30 -281 123
-313 286 -11 58 -10 192 2 247 4 19 10 48 13 63 43 244 234 607 471 896 115
141 288 307 420 404 28 20 55 41 62 47 7 5 15 10 18 10 4 0 32 15 63 33 73 43
247 116 387 163 137 46 420 126 488 138 16 3 43 9 60 15 18 5 80 20 140 32 59
12 104 25 100 29 -5 4 -39 15 -78 25 -130 33 -449 143 -563 194 -203 90 -318
174 -361 266 -51 108 -74 309 -51 435 5 25 10 59 13 75 18 111 78 273 148 400
128 232 306 407 487 478 63 24 92 30 162 30 72 1 92 -3 128 -23 56 -32 74 -61
79 -134 12 -143 -103 -401 -225 -506 -51 -44 -227 -136 -280 -146 -18 -4 -35
-11 -38 -15 -7 -12 47 -107 111 -194 69 -94 151 -167 233 -207 63 -31 73 -33
172 -32 113 0 185 16 275 62 306 154 555 517 625 915 22 127 20 333 -4 422
-88 325 -385 551 -791 601 -57 7 -332 13 -338 8z m663 -4704 c7 -13 -12 -67
-76 -216 -47 -110 -94 -218 -104 -241 -11 -24 -20 -46 -20 -49 0 -7 -19 -49
-72 -161 -51 -108 -157 -191 -221 -172 -39 11 -46 23 -41 74 9 116 58 259 151
440 121 238 333 418 383 325z"/>
</g>
</svg>
