<?xml version="1.0" standalone="no"?>
<!DOCTYPE svg PUBLIC "-//W3C//DTD SVG 20010904//EN"
 "http://www.w3.org/TR/2001/REC-SVG-20010904/DTD/svg10.dtd">
<svg version="1.0" xmlns="http://www.w3.org/2000/svg"
 width="700.000000pt" height="700.000000pt" viewBox="0 0 700.000000 700.000000"
 preserveAspectRatio="xMidYMid meet">
<metadata>
Created by potrace 1.11, written by Peter Selinger 2001-2013
</metadata>
<g transform="translate(0.000000,700.000000) scale(0.100000,-0.100000)"
fill="#000000" stroke="none">
<path d="M0 3500 l0 -3500 3500 0 3500 0 0 3500 0 3500 -3500 0 -3500 0 0
-3500z m4708 2944 c228 -39 406 -128 548 -273 107 -110 163 -224 192 -392 14
-84 15 -115 4 -226 -30 -337 -158 -615 -388 -849 -221 -225 -497 -310 -698
-216 -108 50 -251 205 -325 349 -11 23 -21 44 -21 46 0 3 28 15 63 27 155 58
266 132 332 224 127 178 188 421 130 510 -50 75 -207 93 -345 39 -353 -138
-660 -647 -660 -1093 0 -165 45 -304 121 -379 122 -120 416 -248 879 -383 l75
-21 -40 -10 c-22 -5 -125 -29 -230 -54 -479 -112 -821 -237 -1029 -378 -272
-183 -576 -538 -762 -890 -151 -284 -219 -606 -166 -782 36 -117 94 -178 213
-225 77 -30 289 -37 431 -13 212 35 503 142 683 250 187 112 371 273 519 452
l67 82 52 -23 c29 -13 119 -56 202 -96 l150 -72 72 12 c124 21 236 8 326 -38
4 -2 7 6 7 17 0 21 3 21 260 21 143 0 260 -2 260 -5 0 -3 -96 -232 -214 -508
-238 -559 -256 -608 -236 -631 43 -52 144 16 222 150 30 52 314 702 326 747 4
14 -3 17 -37 17 -22 0 -41 2 -41 5 0 3 21 55 46 115 l46 110 47 0 46 0 74 176
c41 96 79 182 86 190 8 11 81 24 270 50 143 19 265 33 271 32 7 -2 -28 -95
-82 -221 -52 -121 -94 -221 -94 -223 0 -2 36 -4 80 -4 44 0 80 -2 80 -5 0 -3
-21 -55 -46 -115 l-47 -109 -84 -3 -85 -3 -164 -385 c-173 -403 -208 -495
-199 -511 10 -16 84 -10 123 10 48 25 112 94 152 165 l32 56 119 0 c65 0 119
-2 119 -5 0 -13 -122 -202 -181 -282 -119 -158 -237 -246 -414 -308 -105 -37
-238 -45 -316 -20 -59 20 -130 80 -149 125 -7 17 -14 30 -16 30 -2 0 -26 -16
-53 -35 -111 -80 -270 -135 -387 -135 -122 0 -183 29 -244 117 l-36 51 -54
-40 c-123 -89 -233 -128 -359 -128 -144 0 -251 58 -306 165 -29 56 -30 64 -29
184 0 117 6 160 41 275 4 14 -12 6 -53 -28 -636 -513 -1475 -784 -2169 -702
-446 54 -723 226 -890 556 -33 65 -59 137 -86 240 -30 113 -37 370 -14 532 76
536 400 1132 856 1573 247 239 583 475 744 524 22 7 46 14 53 17 9 3 8 11 -8
31 -26 37 -72 174 -100 298 -27 124 -29 325 -6 461 44 248 146 488 317 743
244 365 583 660 984 857 232 113 465 181 702 204 115 11 330 3 441 -16z
m-3867 -219 c127 -45 240 -175 303 -350 5 -15 14 -3 39 56 41 94 80 151 146
212 76 71 128 92 231 92 70 0 93 -4 128 -23 70 -37 129 -99 166 -173 47 -94
60 -162 53 -289 -14 -267 -161 -546 -441 -838 -97 -101 -298 -282 -314 -282
-4 0 -45 33 -92 72 -337 287 -549 576 -636 863 -35 118 -40 295 -10 393 63
208 253 327 427 267z"/>
<path d="M4837 1749 c-119 -78 -242 -265 -340 -514 -33 -83 -67 -218 -67 -264
0 -53 74 -67 139 -27 84 53 107 94 262 457 113 263 145 348 138 361 -16 29
-78 23 -132 -13z"/>
</g>
</svg>
