<?xml version="1.0" standalone="no"?>
<!DOCTYPE svg PUBLIC "-//W3C//DTD SVG 20010904//EN"
 "http://www.w3.org/TR/2001/REC-SVG-20010904/DTD/svg10.dtd">
<svg version="1.0" xmlns="http://www.w3.org/2000/svg"
 width="700.000000pt" height="700.000000pt" viewBox="0 0 700.000000 700.000000"
 preserveAspectRatio="xMidYMid meet">
<metadata>
Created by potrace 1.11, written by Peter Selinger 2001-2013
</metadata>
<g transform="translate(0.000000,700.000000) scale(0.100000,-0.100000)"
fill="#000000" stroke="none">
<path d="M800 6579 c-80 -13 -188 -70 -249 -130 -63 -64 -117 -170 -131 -259
-14 -90 -14 -5290 0 -5380 14 -89 68 -195 131 -259 64 -63 170 -117 259 -131
90 -14 5290 -14 5380 0 89 14 195 68 259 131 63 64 117 170 131 259 14 90 14
5290 0 5380 -14 89 -68 195 -131 259 -64 63 -170 117 -259 131 -82 13 -5310
12 -5390 -1z m3467 -1155 c174 -43 312 -153 367 -294 52 -129 35 -326 -41
-499 -64 -146 -197 -292 -319 -352 -62 -31 -77 -34 -155 -34 -78 0 -90 3 -135
30 -50 32 -122 113 -162 184 -22 39 -22 41 -5 47 61 21 146 67 181 99 99 89
164 285 117 352 -21 30 -78 47 -132 39 -212 -29 -422 -299 -463 -596 -18 -125
9 -240 69 -303 66 -69 200 -132 434 -202 70 -22 122 -42 115 -46 -7 -3 -76
-21 -153 -39 -184 -43 -410 -117 -510 -168 -357 -181 -720 -752 -656 -1034 34
-153 163 -205 403 -163 279 48 528 198 721 434 l28 34 42 -20 42 -20 60 54
c125 114 226 165 363 184 82 11 151 5 194 -17 34 -18 38 -18 38 1 0 13 30 15
210 15 l210 0 -9 -22 c-5 -13 -86 -205 -181 -428 -102 -240 -173 -419 -174
-440 -1 -33 1 -35 33 -38 29 -3 40 3 82 47 26 27 60 74 75 103 20 40 213 482
251 576 3 8 -5 12 -24 12 -16 0 -32 3 -35 6 -3 3 11 44 31 92 36 85 38 87 76
92 l38 5 62 143 c34 78 64 145 68 148 6 6 430 64 435 59 1 -1 -29 -76 -68
-166 -40 -90 -74 -170 -77 -176 -4 -10 12 -13 61 -13 36 0 66 -3 65 -7 0 -5
-17 -46 -37 -93 l-37 -85 -69 -5 -69 -5 -140 -329 c-77 -181 -140 -343 -141
-360 -1 -30 1 -31 37 -30 57 2 114 47 162 127 l40 66 98 1 99 0 -23 -37 c-72
-122 -143 -217 -210 -286 -64 -64 -93 -85 -170 -121 -144 -68 -247 -81 -344
-45 -41 15 -64 31 -85 61 -16 21 -30 44 -32 49 -2 6 -34 -10 -71 -34 -91 -60
-191 -92 -287 -92 -92 0 -140 22 -189 87 l-34 45 -70 -48 c-92 -64 -152 -84
-252 -84 -102 0 -160 22 -213 79 -53 57 -67 103 -66 208 l1 86 -61 -48 c-224
-175 -553 -322 -831 -371 -164 -28 -391 -28 -525 0 -321 68 -504 303 -503 641
2 293 134 620 375 922 163 206 440 424 610 481 16 6 16 9 -2 50 -69 157 -77
369 -21 547 114 358 420 691 786 858 133 60 241 89 395 106 69 8 240 -3 307
-20z"/>
<path d="M4534 2879 c-42 -12 -116 -79 -168 -153 -93 -129 -183 -344 -193
-458 -5 -54 -4 -58 20 -69 23 -10 33 -8 74 13 26 13 62 43 79 65 32 43 254
551 254 583 0 14 -23 34 -33 29 -1 0 -16 -5 -33 -10z"/>
</g>
</svg>
