<?xml version="1.0" standalone="no"?>
<!DOCTYPE svg PUBLIC "-//W3C//DTD SVG 20010904//EN"
 "http://www.w3.org/TR/2001/REC-SVG-20010904/DTD/svg10.dtd">
<svg version="1.0" xmlns="http://www.w3.org/2000/svg"
 width="700.000000pt" height="700.000000pt" viewBox="0 0 700.000000 700.000000"
 preserveAspectRatio="xMidYMid meet">
<metadata>
Created by potrace 1.11, written by Peter Selinger 2001-2013
</metadata>
<g transform="translate(0.000000,700.000000) scale(0.100000,-0.100000)"
fill="#000000" stroke="none">
<path d="M303 6985 c-145 -39 -250 -145 -287 -289 -14 -53 -16 -407 -16 -3202
1 -3406 -3 -3180 51 -3286 26 -50 105 -129 158 -156 106 -55 -104 -52 3291
-52 3391 0 3186 -3 3291 51 90 46 174 159 198 269 7 30 10 1102 8 3205 l-2
3160 -22 54 c-45 110 -124 190 -231 233 l-57 23 -3165 2 c-2702 1 -3173 0
-3217 -12z"/>
</g>
</svg>
